<svg width="941" height="695" viewBox="0 0 941 695" fill="none" xmlns="http://www.w3.org/2000/svg">
<g clip-path="url(#clip0_1_3631)" filter="url(#filter0_d_1_3631)">
<path d="M729.137 171.13C788.475 225.032 810.453 317.434 829.133 412.037C846.715 506.64 859.901 603.443 831.331 696.946C803.859 791.549 733.533 883.952 644.525 913.653C554.419 942.253 445.632 907.052 344.537 863.051C244.541 819.05 152.237 767.348 102.789 688.146C53.3403 607.843 45.6483 501.14 64.3288 399.937C83.0094 297.634 126.964 200.831 200.587 148.029C274.21 96.3276 377.503 89.7274 476.4 94.1276C575.297 99.6277 670.898 116.128 729.137 171.13Z" fill="url(#paint0_linear_1_3631)"/>
<path d="M282.39 236.497C241.759 273.404 226.71 336.674 213.919 401.45C201.88 466.227 192.851 532.509 212.414 596.532C231.225 661.308 279.381 724.578 340.328 744.915C402.027 764.498 476.518 740.396 545.742 710.267C614.213 680.139 677.418 644.738 711.277 590.507C745.136 535.522 750.404 462.46 737.612 393.165C724.821 323.116 694.723 256.834 644.31 220.679C593.897 185.278 523.169 180.759 455.45 183.772C387.731 187.538 322.269 198.836 282.39 236.497Z" fill="url(#paint1_linear_1_3631)"/>
<path d="M307.358 556.051C312.671 560.916 314.638 569.256 316.311 577.794C317.885 586.332 319.066 595.069 316.508 603.508C314.048 612.046 307.751 620.386 299.782 623.066C291.715 625.647 281.975 622.47 272.923 618.499C263.97 614.528 255.706 609.862 251.279 602.714C246.851 595.466 246.163 585.836 247.835 576.702C249.508 567.469 253.443 558.732 260.035 553.967C266.627 549.3 275.875 548.705 284.729 549.102C293.584 549.598 302.143 551.087 307.358 556.051Z" fill="url(#paint2_linear_1_3631)"/>
<path d="M808.585 138.82C809.781 134.826 806.541 129.898 801.256 128.134C797.231 126.79 790.524 127.831 789.595 131.91C789.087 134.14 791.68 140.687 796.924 142.595C802.167 144.503 807.388 142.813 808.585 138.82Z" fill="white" fill-opacity="0.1"/>
<path d="M805.882 151.894C802.935 151.653 797.668 154.621 797.694 158.05C797.712 160.413 801.312 164.283 805.816 164.313C810.32 164.342 813.986 161.586 814.004 158.156C814.022 154.727 810.374 152.262 805.882 151.894Z" fill="white" fill-opacity="0.1"/>
<path d="M845.443 127.927C840.92 125.06 838.112 126.775 835.32 128.212C832.709 129.556 829.764 129.784 826.984 128.945C822.062 127.462 817.024 129.702 814.289 134.267C811.554 138.833 811.666 144.818 814.84 149.222C816.631 151.709 817.6 154.783 817.504 157.957C817.403 161.351 817.076 164.871 821.246 168.326C826.394 172.591 833.854 170.603 837.402 164.68C838.401 163.011 839.001 161.18 839.227 159.323C839.472 157.313 840.112 155.411 841.089 153.759C842.083 152.119 843.418 150.723 845 149.685C846.461 148.726 847.753 147.398 848.752 145.729C852.3 139.807 851.025 131.466 845.443 127.927Z" fill="white" fill-opacity="0.1"/>
<path d="M815.876 126.582C818.726 123.786 818.062 117.835 814.39 113.288C810.72 108.742 804.237 108.719 802.581 110.119C799.553 112.678 801.35 119.873 804.067 123.412C807.634 128.057 813.024 129.377 815.876 126.582Z" fill="white" fill-opacity="0.1"/>
<path d="M834.138 124.39C836.987 123.009 837.828 118.207 836.016 113.664C834.203 109.12 829.551 107.016 827.575 107.936C824.708 109.271 824.327 115.777 825.698 118.661C827.787 123.059 831.289 125.77 834.138 124.39Z" fill="white" fill-opacity="0.1"/>
<path d="M749.194 129.082C753.054 129.895 757.187 125.591 758.115 119.409C758.822 114.699 756.963 107.292 753.059 106.792C750.925 106.518 745.205 110.31 744.137 116.465C743.07 122.62 745.333 128.269 749.194 129.082Z" fill="white" fill-opacity="0.1"/>
<path d="M731.997 137.768C735.177 137.33 736.975 132.896 736.715 127.793C736.544 124.445 733.091 118.914 729.916 119.402C727.73 119.738 724.623 124.306 725.198 129.377C725.772 134.449 728.816 138.205 731.997 137.768Z" fill="white" fill-opacity="0.1"/>
<path d="M760.798 148.47C761.516 142.733 758.767 137.364 754.171 134.897C749.575 132.431 744.045 133.356 740.387 137.514C738.322 139.863 735.605 141.363 732.65 141.68C729.492 142.019 726.186 142.121 723.542 147.275C720.278 153.637 723.116 161.765 729.078 164.965C730.758 165.867 732.534 166.297 734.286 166.304C736.182 166.31 738.03 166.776 739.69 167.656C741.343 168.555 742.815 169.871 743.989 171.512C745.072 173.027 746.475 174.304 748.155 175.205C754.117 178.405 761.675 175.857 764.209 169.104C766.261 163.632 764.297 160.701 762.591 157.752C760.996 154.993 760.393 151.71 760.798 148.47Z" fill="white" fill-opacity="0.1"/>
<path d="M773.628 132.21C777.35 127.472 776.506 120.175 774.988 118.499C772.213 115.434 765.785 118.416 762.869 121.946C759.041 126.581 758.538 132.823 761.509 135.657C764.48 138.491 769.907 136.948 773.628 132.21Z" fill="white" fill-opacity="0.1"/>
<path d="M770.156 145.646C766.361 148.584 764.317 152.887 765.976 155.908C767.636 158.93 772.198 159.234 776.166 156.587C780.134 153.941 781.461 148.425 780.345 146.325C778.725 143.277 772.645 143.718 770.156 145.646Z" fill="white" fill-opacity="0.1"/>
<path d="M674.071 109.574C676.016 108.113 676.106 104.36 674.116 101.313C672.601 98.9914 668.962 96.7308 667.119 98.3448C666.111 99.2273 665.154 103.505 667.073 106.606C668.993 109.707 672.126 111.036 674.071 109.574Z" fill="white" fill-opacity="0.1"/>
<path d="M668.309 114.866C666.947 113.53 663.357 112.808 662.202 114.499C661.407 115.664 661.854 119.047 664.05 120.922C666.247 122.798 668.981 122.961 670.157 121.289C671.333 119.617 670.385 116.901 668.309 114.866Z" fill="white" fill-opacity="0.1"/>
<path d="M690.789 115.425C689.052 115.005 687.533 113.9 686.456 112.341C684.548 109.581 681.319 108.597 678.425 109.704C675.533 110.811 673.552 113.789 673.608 117.258C673.639 119.217 673.068 121.122 671.941 122.639C670.737 124.259 669.378 125.849 670.247 129.265C671.318 133.481 675.649 135.589 679.402 134.153C680.46 133.748 681.376 133.099 682.119 132.282C682.923 131.398 683.883 130.731 684.924 130.325C685.969 129.933 687.099 129.8 688.227 129.945C689.268 130.078 690.353 129.962 691.41 129.557C695.163 128.121 697.377 123.509 695.846 119.468C694.606 116.195 692.646 115.874 690.789 115.425Z" fill="white" fill-opacity="0.1"/>
<path d="M681.817 106.593C684.165 106.401 685.864 103.211 685.613 99.4673C685.36 95.7235 682.193 93.0347 680.905 93.0364C678.551 93.0391 676.983 97.3063 677.11 100.162C677.278 103.911 679.47 106.785 681.817 106.593Z" fill="white" fill-opacity="0.1"/>
<path d="M691.509 113.063C693.374 113.563 695.419 111.558 696.077 108.583C696.735 105.609 695.171 102.656 693.891 102.291C692.032 101.76 689.632 104.79 689.322 106.77C688.85 109.787 689.643 112.562 691.509 113.063Z" fill="white" fill-opacity="0.1"/>
<path d="M591.452 140.128C593.552 138.387 593.476 134.197 591.116 130.911C589.317 128.409 585.153 126.094 583.173 127.999C582.09 129.041 581.224 133.866 583.509 137.216C585.795 140.565 589.351 141.869 591.452 140.128Z" fill="white" fill-opacity="0.1"/>
<path d="M580.796 153.353C583.333 155.319 586.39 155.346 587.623 153.415C588.856 151.483 587.671 148.509 585.262 146.356C583.681 144.944 579.642 144.343 578.435 146.295C577.602 147.639 578.258 151.387 580.796 153.353Z" fill="white" fill-opacity="0.1"/>
<path d="M589.678 154.818C588.411 156.694 586.971 158.543 588.098 162.304C589.491 166.945 594.419 169.049 598.538 167.234C599.698 166.723 600.691 165.947 601.48 164.994C602.335 163.963 603.375 163.164 604.516 162.653C605.664 162.155 606.916 161.944 608.181 162.04C609.349 162.13 610.554 161.938 611.715 161.427C615.833 159.612 618.085 154.342 616.189 149.924C614.652 146.344 612.452 146.099 610.36 145.703C608.403 145.333 606.657 144.187 605.382 142.51C603.127 139.539 599.478 138.626 596.304 140.025C593.13 141.424 591.06 144.858 591.284 148.723C591.412 150.906 590.864 153.063 589.678 154.818Z" fill="white" fill-opacity="0.1"/>
<path d="M599.94 136.364C602.55 136.017 604.295 132.362 603.839 128.201C603.383 124.04 599.724 121.221 598.288 121.296C595.663 121.433 594.115 126.281 594.39 129.459C594.752 133.63 597.331 136.711 599.94 136.364Z" fill="white" fill-opacity="0.1"/>
<path d="M611.057 143.027C613.161 143.48 615.348 141.128 615.943 137.772C616.537 134.418 614.655 131.213 613.21 130.879C611.112 130.393 608.577 133.909 608.323 136.134C607.938 139.525 608.953 142.575 611.057 143.027Z" fill="white" fill-opacity="0.1"/>
<path d="M647.161 259.761C650.603 255.706 653.139 247.214 649.655 243.953C647.749 242.171 639.992 241.773 635.354 246.972C630.717 252.171 629.6 259.248 632.86 262.78C636.12 266.312 642.642 265.085 647.161 259.761Z" fill="white" fill-opacity="0.1"/>
<path d="M609.471 246.004C607.057 251.322 607.804 257.123 611.139 258.961C614.473 260.799 618.81 257.784 621.547 252.661C623.343 249.299 623.238 241.489 619.879 239.704C617.566 238.475 611.886 240.687 609.471 246.004Z" fill="white" fill-opacity="0.1"/>
<path d="M634.271 271.951C631.267 266.295 625.371 263.258 619.397 264.682C616.021 265.487 612.512 265.006 609.467 263.212C606.212 261.294 602.952 259.043 597.374 262.151C590.49 265.987 588.478 275.874 592.374 283.211C593.472 285.279 594.94 286.958 596.631 288.209C598.462 289.564 599.977 291.329 601.07 293.361C602.144 295.407 602.797 297.727 602.972 300.15C603.134 302.387 603.744 304.62 604.842 306.687C608.739 314.024 617.547 316.933 623.954 312.197C629.146 308.36 628.96 304.127 629.037 300.059C629.11 296.255 630.447 292.649 632.736 289.801C636.791 284.758 637.274 277.607 634.271 271.951Z" fill="white" fill-opacity="0.1"/>
<path d="M650.275 265.597C643.855 267.361 639.714 273.045 640.929 277.901C642.145 282.757 648.301 285.122 654.678 283.182C661.055 281.243 664.511 273.58 664.023 270.878C663.131 265.937 655.164 264.253 650.275 265.597Z" fill="white" fill-opacity="0.1"/>
<path d="M643.452 293.721C638.057 293.867 633.559 296.578 633.396 300.682C633.233 304.787 637.47 308.325 642.86 308.586C648.251 308.846 652.767 304.451 652.916 301.624C653.133 297.523 646.99 293.626 643.452 293.721Z" fill="white" fill-opacity="0.1"/>
<path d="M507.651 258.903C511.946 259.339 516.047 254.154 516.465 247.292C516.783 242.065 514.038 234.191 509.725 234.101C507.367 234.052 501.484 238.864 500.911 245.713C500.339 252.561 503.356 258.467 507.651 258.903Z" fill="white" fill-opacity="0.1"/>
<path d="M489.707 270.405C493.139 269.554 494.675 264.5 493.9 258.956C493.391 255.319 489.085 249.681 485.664 250.586C483.307 251.209 480.355 256.562 481.471 262.035C482.588 267.508 486.275 271.255 489.707 270.405Z" fill="white" fill-opacity="0.1"/>
<path d="M510.965 309.41C517.786 312.208 525.797 308.54 527.914 300.866C529.629 294.648 527.2 291.676 525.053 288.654C523.044 285.827 522.069 282.311 522.199 278.725C522.43 272.373 518.909 266.83 513.651 264.673C508.393 262.517 502.439 264.174 498.846 269.145C496.816 271.953 493.992 273.91 490.795 274.602C487.377 275.342 483.777 275.84 481.385 281.78C478.432 289.112 482.317 297.659 489.138 300.457C491.06 301.246 493.043 301.508 494.956 301.31C497.028 301.095 499.09 301.387 500.99 302.153C502.882 302.942 504.617 304.208 506.057 305.863C507.387 307.391 509.043 308.622 510.965 309.41Z" fill="white" fill-opacity="0.1"/>
<path d="M521.733 264.644C525.252 267.392 531.031 265.071 534.639 259.46C538.249 253.848 536.623 245.976 534.803 244.323C531.475 241.299 524.74 245.309 521.897 249.507C518.162 255.018 518.214 261.896 521.733 264.644Z" fill="white" fill-opacity="0.1"/>
<path d="M528.57 286.244C530.673 289.35 535.686 289.149 539.765 285.793C543.845 282.438 544.763 276.256 543.341 274.093C541.278 270.953 534.68 272.146 532.145 274.543C528.283 278.198 526.465 283.137 528.57 286.244Z" fill="white" fill-opacity="0.1"/>
<path d="M568.8 395.589C572.873 399.17 580.136 396.933 584.691 390.31C588.16 385.265 590.129 375.308 585.829 372.064C583.478 370.29 574.64 370.846 569.938 377.342C565.236 383.839 564.726 392.008 568.8 395.589Z" fill="white" fill-opacity="0.1"/>
<path d="M540.48 379.606C538.311 385.948 539.778 392.429 543.756 394.08C547.733 395.731 552.327 391.751 554.883 385.586C556.56 381.541 555.605 372.7 551.608 371.113C548.853 370.018 542.649 373.264 540.48 379.606Z" fill="white" fill-opacity="0.1"/>
<path d="M571.38 405.803C567.37 399.78 560.361 397.102 553.739 399.493C549.998 400.844 545.968 400.754 542.324 399.115C538.428 397.363 534.492 395.234 528.5 399.482C521.104 404.725 519.88 416.196 525.082 424.009C526.548 426.21 528.391 427.925 530.442 429.124C532.663 430.422 534.571 432.226 536.027 434.389C537.462 436.569 538.452 439.115 538.91 441.839C539.332 444.355 540.263 446.807 541.729 449.009C546.931 456.822 557.228 458.976 563.987 452.775C569.462 447.751 568.799 442.975 568.452 438.353C568.128 434.031 569.259 429.768 571.55 426.242C575.607 419.996 575.39 411.826 571.38 405.803Z" fill="white" fill-opacity="0.1"/>
<path d="M588.841 396.522C581.752 399.356 577.664 406.338 579.562 411.685C581.46 417.034 588.691 418.916 595.715 415.889C602.737 412.862 605.836 403.725 604.994 400.725C603.454 395.239 594.241 394.364 588.841 396.522Z" fill="white" fill-opacity="0.1"/>
<path d="M584.115 429.295C578.015 430.16 573.205 433.818 573.459 438.493C573.713 443.168 578.895 446.629 585.035 446.224C591.175 445.819 595.824 440.25 595.692 437.026C595.498 432.348 588.117 428.727 584.115 429.295Z" fill="white" fill-opacity="0.1"/>
<path d="M511.891 484.756C510.594 485.498 508.684 490.033 510.211 493.948C511.738 497.861 514.965 500.092 517.419 498.93C519.874 497.767 520.714 493.609 519.099 489.738C517.869 486.789 514.262 483.399 511.891 484.756Z" fill="white" fill-opacity="0.1"/>
<path d="M509.948 503.439C508.695 501.625 504.838 499.961 503.219 501.568C502.104 502.675 501.934 506.55 504.011 509.165C506.087 511.779 509.1 512.617 510.739 511.036C512.378 509.455 511.858 506.203 509.948 503.439Z" fill="white" fill-opacity="0.1"/>
<path d="M534.869 509.448C533.017 508.563 531.543 506.968 530.651 504.974C529.072 501.442 525.668 499.572 522.227 500.113C518.787 500.653 515.992 503.495 515.371 507.372C515.02 509.561 514.008 511.547 512.453 512.965C510.792 514.482 508.966 515.927 509.259 519.939C509.62 524.892 514.028 528.277 518.491 527.577C519.749 527.38 520.899 526.876 521.886 526.145C522.957 525.353 524.158 524.839 525.397 524.637C526.638 524.45 527.922 524.573 529.15 525.005C530.284 525.403 531.516 525.532 532.773 525.335C537.237 524.634 540.611 520.027 539.703 515.161C538.968 511.219 536.849 510.393 534.869 509.448Z" fill="white" fill-opacity="0.1"/>
<path d="M526.617 497.462C529.269 497.811 531.791 494.664 532.25 490.434C532.708 486.204 529.71 482.45 528.276 482.143C525.653 481.582 523.065 485.959 522.643 489.171C522.09 493.388 523.964 497.113 526.617 497.462Z" fill="white" fill-opacity="0.1"/>
<path d="M540.923 495.561C538.958 494.525 535.686 497.325 534.951 499.455C533.83 502.703 534.166 505.983 536.144 506.988C538.123 507.993 540.798 506.249 542.117 503.094C543.436 499.938 542.278 496.276 540.923 495.561Z" fill="white" fill-opacity="0.1"/>
<path d="M402.188 543.73C402.806 539.136 398.437 534.449 392.384 533.629C387.774 533.005 380.656 535.533 380.343 540.164C380.173 542.696 384.115 549.28 390.147 550.264C396.18 551.249 401.571 548.324 402.188 543.73Z" fill="white" fill-opacity="0.1"/>
<path d="M401.487 558.516C398.239 558.867 393.017 563.192 393.633 566.918C394.058 569.485 398.637 572.947 403.543 572.042C408.449 571.137 411.964 567.375 411.397 563.64C410.829 559.905 406.437 557.982 401.487 558.516Z" fill="white" fill-opacity="0.1"/>
<path d="M440.432 524.208C435.019 522.029 432.257 524.48 429.466 526.624C426.855 528.63 423.69 529.49 420.522 529.157C414.911 528.567 409.814 532.052 407.621 537.589C405.428 543.125 406.575 549.613 410.783 553.745C413.159 556.079 414.739 559.221 415.179 562.694C415.65 566.408 415.897 570.306 421.027 573.198C427.358 576.767 435.135 573.051 437.98 565.869C438.782 563.846 439.121 561.728 439.048 559.661C438.97 557.422 439.34 555.22 440.121 553.219C440.922 551.228 442.135 549.432 443.678 547.973C445.104 546.625 446.281 544.912 447.083 542.888C449.927 535.706 447.111 526.896 440.432 524.208Z" fill="white" fill-opacity="0.1"/>
<path d="M394.637 527.904C399.314 532.216 405.406 532.53 408.029 528.896C410.652 525.261 408.908 518.924 404.135 514.742C399.361 510.56 392.305 511.883 390.743 513.75C387.887 517.165 391.074 524.62 394.637 527.904Z" fill="white" fill-opacity="0.1"/>
<path d="M427.521 522.712C430.384 520.617 430.475 515.217 427.725 510.651C424.974 506.085 419.552 504.764 417.56 506.176C414.669 508.225 415.369 515.383 417.355 518.236C420.382 522.586 424.657 524.807 427.521 522.712Z" fill="white" fill-opacity="0.1"/>
<path d="M320.089 559.448C323.066 559.325 325.456 555.372 325.189 550.631C324.985 547.02 322.469 541.896 319.508 542.257C317.888 542.454 314.248 546.327 314.408 551.074C314.569 555.821 317.112 559.57 320.089 559.448Z" fill="white" fill-opacity="0.1"/>
<path d="M308.729 569.082C311.012 568.163 311.656 564.551 310.677 560.83C310.035 558.389 306.631 554.95 304.361 555.905C302.797 556.563 301.206 560.518 302.413 564.156C303.62 567.795 306.447 570 308.729 569.082Z" fill="white" fill-opacity="0.1"/>
<path d="M334.415 578.118C332.811 576.378 331.859 574.066 331.659 571.597C331.304 567.224 328.445 563.773 324.67 562.811C320.895 561.849 316.951 563.567 314.891 567.325C313.727 569.447 311.951 571.064 309.817 571.851C307.536 572.693 305.111 573.387 303.952 577.69C302.521 583.001 305.871 588.474 310.769 589.722C312.15 590.074 313.529 590.059 314.823 589.736C316.224 589.386 317.661 589.384 319.025 589.723C320.384 590.078 321.675 590.775 322.794 591.767C323.829 592.683 325.062 593.363 326.442 593.715C331.339 594.963 336.53 591.665 337.361 586.202C338.032 581.775 336.129 579.978 334.415 578.118Z" fill="white" fill-opacity="0.1"/>
<path d="M330.202 561.999C332.834 563.536 336.604 561.38 338.623 557.183C340.641 552.986 338.893 547.754 337.513 546.8C334.989 545.055 330.701 548.462 329.092 551.615C326.978 555.756 327.57 560.461 330.202 561.999Z" fill="white" fill-opacity="0.1"/>
<path d="M338.136 567.758C335.786 570.639 334.94 574.2 336.632 576.121C338.324 578.042 341.74 577.413 344.264 574.715C346.786 572.018 346.917 567.694 345.768 566.352C344.102 564.404 339.679 565.868 338.136 567.758Z" fill="white" fill-opacity="0.1"/>
<path d="M246.529 649.755C249.001 649.202 250.505 645.537 249.691 641.615C249.071 638.629 246.329 634.728 243.9 635.478C242.571 635.888 240.012 639.675 240.738 643.618C241.463 647.56 244.057 650.308 246.529 649.755Z" fill="white" fill-opacity="0.1"/>
<path d="M238.24 659.527C240.032 658.414 240.12 655.297 238.838 652.336C237.998 650.393 234.724 648.035 232.946 649.176C231.72 649.963 230.886 653.509 232.347 656.367C233.81 659.226 236.448 660.64 238.24 659.527Z" fill="white" fill-opacity="0.1"/>
<path d="M260.829 663.189C259.272 661.978 258.188 660.19 257.713 658.157C256.871 654.557 254.052 652.105 250.777 651.873C247.502 651.641 244.422 653.674 243.168 657.126C242.461 659.075 241.178 660.696 239.492 661.676C237.691 662.725 235.751 663.672 235.319 667.444C234.786 672.098 238.268 676.165 242.517 676.467C243.713 676.552 244.864 676.33 245.905 675.864C247.033 675.36 248.233 675.141 249.414 675.217C250.595 675.308 251.76 675.695 252.819 676.354C253.798 676.964 254.914 677.345 256.111 677.43C260.359 677.731 264.286 674.19 264.298 669.499C264.308 665.697 262.493 664.484 260.829 663.189Z" fill="white" fill-opacity="0.1"/>
<path d="M255.299 650.356C257.691 651.243 260.573 648.87 261.737 645.057C262.9 641.244 260.787 637.136 259.515 636.548C257.188 635.472 254.029 638.968 253.077 641.847C251.829 645.627 252.909 649.47 255.299 650.356Z" fill="white" fill-opacity="0.1"/>
<path d="M262.652 653.969C261.047 656.732 260.784 659.836 262.438 661.186C264.09 662.536 266.868 661.492 268.64 658.855C270.412 656.219 269.982 652.586 268.855 651.638C267.218 650.263 263.705 652.156 262.652 653.969Z" fill="white" fill-opacity="0.1"/>
<path d="M195.922 551.07C198.977 547.578 201.295 540.199 198.29 537.3C196.648 535.715 189.878 535.255 185.765 539.727C181.651 544.2 180.59 550.365 183.395 553.498C186.2 556.629 191.91 555.654 195.922 551.07Z" fill="white" fill-opacity="0.1"/>
<path d="M164.456 549.843C167.346 551.497 171.17 548.928 173.622 544.493C175.232 541.583 175.234 534.76 172.323 533.152C170.317 532.044 165.329 533.893 163.156 538.502C160.983 543.111 161.565 548.189 164.456 549.843Z" fill="white" fill-opacity="0.1"/>
<path d="M184.52 561.527C181.965 556.543 176.854 553.804 171.617 554.96C168.659 555.614 165.601 555.142 162.963 553.531C160.143 551.808 157.324 549.794 152.414 552.427C146.355 555.677 144.478 564.283 147.793 570.748C148.727 572.57 149.989 574.058 151.45 575.176C153.033 576.386 154.335 577.95 155.265 579.74C156.178 581.543 156.721 583.579 156.845 585.697C156.959 587.654 157.465 589.613 158.4 591.435C161.715 597.9 169.372 600.57 175.025 596.527C179.605 593.252 179.494 589.552 179.61 586.001C179.719 582.68 180.931 579.549 182.965 577.095C186.567 572.749 187.076 566.511 184.52 561.527Z" fill="white" fill-opacity="0.1"/>
<path d="M198.572 556.212C192.944 557.659 189.259 562.563 190.262 566.822C191.266 571.08 196.614 573.237 202.206 571.636C207.8 570.035 210.91 563.393 210.517 561.026C209.798 556.698 202.858 555.11 198.572 556.212Z" fill="white" fill-opacity="0.1"/>
<path d="M192.271 580.675C187.558 580.723 183.597 583.025 183.405 586.608C183.213 590.19 186.871 593.342 191.577 593.648C196.281 593.954 200.278 590.182 200.443 587.716C200.681 584.137 195.363 580.643 192.271 580.675Z" fill="white" fill-opacity="0.1"/>
<path d="M108.931 560.815C111.24 562.582 115.075 561.091 117.312 557.347C119.015 554.495 119.751 549.059 117.331 547.483C116.008 546.621 111.269 547.269 108.95 550.951C106.631 554.632 106.622 559.049 108.931 560.815Z" fill="white" fill-opacity="0.1"/>
<path d="M95.3984 560.99C97.5931 561.722 99.9368 559.399 101.112 555.98C101.883 553.738 101.082 549.017 98.879 548.321C97.3605 547.841 94.1269 549.832 93.1665 553.331C92.205 556.829 93.2047 560.259 95.3984 560.99Z" fill="white" fill-opacity="0.1"/>
<path d="M100.95 563.511C98.981 564.386 96.8092 564.496 94.7944 563.758C92.6405 562.969 90.4537 561.978 87.3662 564.501C83.5562 567.615 83.2701 573.837 86.3243 577.836C87.1849 578.963 88.2328 579.813 89.375 580.377C90.6127 580.988 91.6974 581.884 92.552 582.99C93.3947 584.107 94.0103 585.438 94.3452 586.886C94.6542 588.223 95.2346 589.506 96.0952 590.633C99.1494 594.633 104.761 595.386 108.196 591.782C110.98 588.862 110.468 586.318 110.131 583.844C109.816 581.531 110.286 579.191 111.405 577.203C113.386 573.682 113.004 569.293 110.649 566.21C108.295 563.128 104.437 561.963 100.95 563.511Z" fill="white" fill-opacity="0.1"/>
<path d="M119.745 560.527C116.022 562.331 114.048 566.25 115.244 569.053C116.439 571.857 120.392 572.584 124.074 570.678C127.755 568.772 129.126 563.732 128.575 562.151C127.568 559.26 122.581 559.152 119.745 560.527Z" fill="white" fill-opacity="0.1"/>
<path d="M118.272 578.351C115.016 579.057 112.546 581.216 112.836 583.721C113.123 586.227 116.025 587.885 119.316 587.426C122.607 586.965 124.929 583.785 124.752 582.055C124.497 579.544 120.407 577.888 118.272 578.351Z" fill="white" fill-opacity="0.1"/>
<path d="M18.6233 597.252C16.7516 597.747 14.7965 597.462 13.0788 596.504C10.0365 594.807 6.4675 595.531 4.12378 598.116C1.78007 600.701 1.12669 604.634 2.66847 607.985C3.53898 609.877 3.79983 612.031 3.35265 614.095C2.87367 616.301 2.23321 618.556 4.54264 621.433C7.39416 624.983 12.5178 624.782 15.5592 621.428C16.4153 620.483 17.0304 619.373 17.4035 618.191C17.808 616.911 18.4574 615.76 19.2981 614.823C20.1477 613.896 21.1911 613.18 22.3523 612.733C23.424 612.321 24.4312 611.642 25.2883 610.697C28.3291 607.344 28.507 601.697 25.2833 598.557C22.6718 596.014 20.6257 596.723 18.6233 597.252Z" fill="white" fill-opacity="0.1"/>
<path d="M-0.609348 580.584C-2.90189 581.813 -2.60029 586.787 -1.2508 589.503C0.520525 593.069 3.88828 594.727 6.09288 593.318C8.29846 591.909 8.58565 587.915 6.73433 584.399C4.884 580.883 0.644245 579.913 -0.609348 580.584Z" fill="white" fill-opacity="0.1"/>
<path d="M16.0145 582.839C13.9759 583.291 12.9365 587.493 13.4835 589.582C14.3177 592.768 16.2814 595.058 18.313 594.575C20.3447 594.091 21.4781 591.073 20.8431 587.832C20.2091 584.591 17.4187 582.529 16.0145 582.839Z" fill="white" fill-opacity="0.1"/>
<path d="M-2.27287 460.58C-0.52887 461.388 1.40344 461.787 3.41972 461.672C10.5761 461.262 16.5131 454.498 15.7042 446.652C15.0489 440.296 11.8004 438.656 8.78886 436.85C5.97163 435.16 3.84305 432.404 2.68883 429.107C0.644226 423.268 -4.5023 419.776 -10.019 420.091C-15.5352 420.407 -20.326 424.468 -21.8111 430.508C-22.6493 433.919 -24.5086 436.904 -27.1509 438.905C-29.9771 441.046 -33.0532 443.047 -33.1089 449.445C-33.1759 457.341 -26.6347 463.391 -19.4783 462.982C-17.4616 462.866 -15.5774 462.25 -13.9184 461.247C-12.1222 460.161 -10.1547 459.536 -8.16669 459.411C-6.17774 459.309 -4.16096 459.705 -2.27287 460.58Z" fill="white" fill-opacity="0.1"/>
<path d="M-2.73 416.581C1.42429 417.549 5.82255 412.963 7.09403 406.339C8.36502 399.714 4.10439 393.301 1.87346 392.591C-2.20581 391.292 -6.8684 397.815 -7.95058 402.834C-9.37111 409.421 -6.8843 415.613 -2.73 416.581Z" fill="white" fill-opacity="0.1"/>
<path d="M11.1148 433.155C14.1178 435.056 18.5752 432.715 21.0715 427.926C23.5677 423.138 22.2053 417.156 20.1537 415.814C17.1755 413.866 11.636 417.785 10.1961 421.043C8.00239 426.008 8.1117 431.255 11.1148 433.155Z" fill="white" fill-opacity="0.1"/>
<path d="M460.662 247.812C468.818 255.272 471.839 268.059 474.407 281.151C476.823 294.243 478.636 307.639 474.709 320.579C470.933 333.67 461.266 346.458 449.032 350.568C436.646 354.526 421.693 349.655 407.798 343.565C394.053 337.476 381.366 330.321 374.569 319.361C367.772 308.248 366.715 293.481 369.282 279.476C371.85 265.319 377.892 251.922 388.011 244.615C398.131 237.461 412.329 236.547 425.923 237.156C439.516 237.917 452.657 240.201 460.662 247.812Z" fill="url(#paint3_linear_1_3631)"/>
<path d="M676.852 409.162C678.424 410.654 679.006 413.212 679.5 415.83C679.966 418.449 680.315 421.128 679.559 423.716C678.831 426.334 676.969 428.892 674.612 429.714C672.225 430.505 669.345 429.531 666.667 428.313C664.019 427.095 661.575 425.664 660.266 423.472C658.956 421.25 658.752 418.296 659.247 415.495C659.742 412.664 660.906 409.984 662.855 408.523C664.805 407.092 667.54 406.909 670.159 407.031C672.778 407.183 675.31 407.64 676.852 409.162Z" fill="url(#paint4_linear_1_3631)"/>
</g>
<defs>
<filter id="filter0_d_1_3631" x="0" y="0" width="945" height="910" filterUnits="userSpaceOnUse" color-interpolation-filters="sRGB">
<feFlood flood-opacity="0" result="BackgroundImageFix"/>
<feColorMatrix in="SourceAlpha" type="matrix" values="0 0 0 0 0 0 0 0 0 0 0 0 0 0 0 0 0 0 127 0" result="hardAlpha"/>
<feOffset dy="4"/>
<feGaussianBlur stdDeviation="2"/>
<feComposite in2="hardAlpha" operator="out"/>
<feColorMatrix type="matrix" values="0 0 0 0 0 0 0 0 0 0 0 0 0 0 0 0 0 0 0.25 0"/>
<feBlend mode="normal" in2="BackgroundImageFix" result="effect1_dropShadow_1_3631"/>
<feBlend mode="normal" in="SourceGraphic" in2="effect1_dropShadow_1_3631" result="shape"/>
</filter>
<linearGradient id="paint0_linear_1_3631" x1="55" y1="924" x2="885.091" y2="131.868" gradientUnits="userSpaceOnUse">
<stop stop-color="#F87537"/>
<stop offset="1" stop-color="#FBA81F"/>
</linearGradient>
<linearGradient id="paint1_linear_1_3631" x1="744" y1="752" x2="175.622" y2="209.593" gradientUnits="userSpaceOnUse">
<stop stop-color="#F87537"/>
<stop offset="1" stop-color="#FBA81F"/>
</linearGradient>
<linearGradient id="paint2_linear_1_3631" x1="247" y1="624" x2="321.887" y2="553.107" gradientUnits="userSpaceOnUse">
<stop stop-color="#F87537"/>
<stop offset="1" stop-color="#FBA81F"/>
</linearGradient>
<linearGradient id="paint3_linear_1_3631" x1="368" y1="352" x2="482.835" y2="243.156" gradientUnits="userSpaceOnUse">
<stop stop-color="#F87537"/>
<stop offset="1" stop-color="#FBA81F"/>
</linearGradient>
<linearGradient id="paint4_linear_1_3631" x1="659" y1="430" x2="681.905" y2="409.087" gradientUnits="userSpaceOnUse">
<stop stop-color="#F87537"/>
<stop offset="1" stop-color="#FBA81F"/>
</linearGradient>
<clipPath id="clip0_1_3631">
<rect width="937" height="902" fill="white" transform="translate(4)"/>
</clipPath>
</defs>
</svg>
