<svg viewBox="0 0 798.759 589.73" xmlns="http://www.w3.org/2000/svg" xmlns:xlink="http://www.w3.org/1999/xlink" width="798.759277" height="589.730225" fill="none" customFrame="#000000">
	<defs>
		<linearGradient id="paint_linear_5" x1="0" x2="496.993317" y1="497.964966" y2="31.0924377" gradientUnits="userSpaceOnUse">
			<stop stop-color="rgb(248,117,55)" offset="0" stop-opacity="1" />
			<stop stop-color="rgb(251,168,31)" offset="1" stop-opacity="1" />
		</linearGradient>
		<linearGradient id="paint_linear_6" x1="0" x2="94.1717453" y1="94.3558578" y2="5.89149475" gradientUnits="userSpaceOnUse">
			<stop stop-color="rgb(248,117,55)" offset="0" stop-opacity="1" />
			<stop stop-color="rgb(251,168,31)" offset="1" stop-opacity="1" />
		</linearGradient>
		<linearGradient id="paint_linear_7" x1="0" x2="94.1717453" y1="94.3558578" y2="5.89149475" gradientUnits="userSpaceOnUse">
			<stop stop-color="rgb(248,117,55)" offset="0" stop-opacity="1" />
			<stop stop-color="rgb(251,168,31)" offset="1" stop-opacity="1" />
		</linearGradient>
		<linearGradient id="paint_linear_8" x1="0" x2="374.06189" y1="374.793213" y2="23.4017944" gradientUnits="userSpaceOnUse">
			<stop stop-color="rgb(248,117,55)" offset="0" stop-opacity="1" />
			<stop stop-color="rgb(251,168,31)" offset="1" stop-opacity="1" />
		</linearGradient>
	</defs>
	<g id="Group 10">
		<path id="Shape" d="M397.669 46.8183C432.672 79.118 445.636 134.489 456.656 191.179C467.027 247.868 474.806 305.876 457.952 361.906C441.747 418.595 400.262 473.967 347.757 491.764C294.604 508.903 230.431 487.809 170.796 461.442C111.809 435.075 57.3596 404.094 28.1903 356.633C-0.979071 308.513 -5.51653 244.572 5.50301 183.928C16.5225 122.624 42.4509 64.6161 85.8808 32.9755C129.311 1.99404 190.242 -1.96104 248.581 0.675675C306.92 3.97157 363.314 13.8593 397.669 46.8183Z" fill="url(#paint_linear_5)" fill-rule="nonzero" transform="matrix(-0.974845,0.222884,-0.222884,-0.974845,707.68,485.439)" />
		<path id="Shape" d="M75.3514 8.87126C81.984 14.9915 84.4405 25.4834 86.5285 36.2251C88.4937 46.9668 89.9676 57.9582 86.7741 68.575C83.7035 79.3167 75.8428 89.8086 65.894 93.181C55.8224 96.4284 43.6628 92.4315 32.3629 87.4354C21.1859 82.4393 10.8687 76.5688 5.34158 67.5758C-0.185517 58.4579 -1.04529 46.3422 1.04273 34.8511C3.13074 23.2351 8.04371 12.2436 16.2729 6.24829C24.5022 0.377837 36.0477 -0.371584 47.1019 0.128029C58.156 0.752545 68.8418 2.6261 75.3514 8.87126Z" fill="url(#paint_linear_6)" fill-rule="nonzero" transform="matrix(-0.902956,-0.429733,0.429733,-0.902956,597.359,401.428)" />
		<path id="Shape" d="M75.3514 8.87126C81.984 14.9915 84.4405 25.4834 86.5285 36.2251C88.4937 46.9668 89.9676 57.9582 86.7741 68.575C83.7035 79.3167 75.8428 89.8086 65.894 93.181C55.8224 96.4284 43.6628 92.4315 32.3629 87.4354C21.1859 82.4393 10.8687 76.5688 5.34158 67.5758C-0.185517 58.4579 -1.04529 46.3422 1.04273 34.8511C3.13074 23.2351 8.04371 12.2436 16.2729 6.24829C24.5022 0.377837 36.0477 -0.371584 47.1019 0.128029C58.156 0.752545 68.8418 2.6261 75.3514 8.87126Z" fill="url(#paint_linear_7)" fill-rule="nonzero" transform="matrix(-0.946431,0.322907,-0.322907,-0.946431,507.656,240.311)" />
		<path id="Shape" d="M299.305 35.2377C325.651 59.5482 335.408 101.223 343.702 143.891C351.508 186.558 357.362 230.217 344.678 272.388C332.481 315.056 301.257 356.731 261.739 370.126C221.733 383.026 173.434 367.15 128.55 347.304C84.1531 327.459 43.1717 304.141 21.2174 268.419C-0.736898 232.202 -4.15201 184.077 4.14184 138.433C12.4357 92.2928 31.9506 48.6333 64.6382 24.819C97.3257 1.50082 143.186 -1.47598 187.094 0.508547C231.003 2.9892 273.448 10.4312 299.305 35.2377Z" fill="url(#paint_linear_8)" fill-rule="nonzero" transform="matrix(-0.974845,0.222884,-0.222884,-0.974845,623.852,504.417)" />
		<g id="Vector">
			<path id="XMLID_592_" d="M761.047 94.5013C762.117 90.8299 759.219 86.2987 754.49 84.6767C750.888 83.4413 744.888 84.3978 744.056 88.1483C743.602 90.1987 745.921 96.2179 750.613 97.9723C755.305 99.7267 759.976 98.1727 761.047 94.5013Z" fill="rgb(255,255,255)" fill-opacity="0.100000001" fill-rule="nonzero" />
			<path id="XMLID_593_" d="M758.631 106.522C755.994 106.3 751.281 109.029 751.305 112.182C751.321 114.355 754.541 117.913 758.572 117.941C762.601 117.967 765.881 115.433 765.898 112.28C765.914 109.127 762.65 106.86 758.631 106.522Z" fill="rgb(255,255,255)" fill-opacity="0.100000001" fill-rule="nonzero" />
			<path id="XMLID_594_" d="M794.023 84.4866C789.976 81.8503 787.464 83.4274 784.966 84.7488C782.63 85.9847 779.995 86.1936 777.507 85.4229C773.103 84.0587 768.595 86.1181 766.149 90.3159C763.702 94.5138 763.802 100.016 766.641 104.066C768.244 106.353 769.111 109.178 769.025 112.097C768.935 115.217 768.642 118.453 772.373 121.63C776.979 125.551 783.654 123.724 786.828 118.278C787.722 116.744 788.259 115.061 788.461 113.353C788.681 111.505 789.253 109.756 790.127 108.237C791.017 106.729 792.212 105.446 793.627 104.491C794.934 103.609 796.09 102.388 796.984 100.854C800.158 95.4093 799.018 87.7405 794.023 84.4866Z" fill="rgb(255,255,255)" fill-opacity="0.100000001" fill-rule="nonzero" />
			<path id="XMLID_595_" d="M767.572 83.2495C770.123 80.679 769.528 75.2075 766.243 71.0271C762.959 66.8473 757.159 66.8261 755.677 68.1128C752.968 70.4658 754.575 77.0817 757.006 80.3347C760.198 84.6062 765.021 85.8199 767.572 83.2495Z" fill="rgb(255,255,255)" fill-opacity="0.100000001" fill-rule="nonzero" />
			<path id="XMLID_596_" d="M783.908 81.2341C786.458 79.965 787.21 75.55 785.589 71.3722C783.966 67.1949 779.804 65.2603 778.036 66.106C775.471 67.3333 775.13 73.3154 776.357 75.9673C778.226 80.0108 781.359 82.5032 783.908 81.2341Z" fill="rgb(255,255,255)" fill-opacity="0.100000001" fill-rule="nonzero" />
			<path id="XMLID_597_" d="M707.917 85.5482C711.371 86.2958 715.068 82.339 715.899 76.6544C716.532 72.3246 714.868 65.5144 711.375 65.0543C709.466 64.8026 704.348 68.2887 703.392 73.9481C702.438 79.6069 704.463 84.8007 707.917 85.5482Z" fill="rgb(255,255,255)" fill-opacity="0.100000001" fill-rule="nonzero" />
			<path id="XMLID_598_" d="M692.521 93.5344C695.366 93.1322 696.975 89.055 696.742 84.3632C696.59 81.2853 693.5 76.1999 690.659 76.6484C688.703 76.9575 685.923 81.157 686.437 85.8196C686.952 90.4827 689.675 93.9366 692.521 93.5344Z" fill="rgb(255,255,255)" fill-opacity="0.100000001" fill-rule="nonzero" />
			<path id="XMLID_599_" d="M718.289 103.374C718.931 98.0994 716.472 93.1635 712.36 90.8952C708.248 88.6274 703.3 89.4776 700.027 93.3015C698.18 95.461 695.748 96.8399 693.104 97.1313C690.278 97.4429 687.321 97.5371 684.955 102.276C682.034 108.125 684.574 115.598 689.909 118.54C691.412 119.369 693.001 119.765 694.568 119.771C696.264 119.777 697.918 120.206 699.404 121.014C700.883 121.841 702.199 123.051 703.249 124.56C704.219 125.952 705.474 127.126 706.978 127.955C712.312 130.897 719.074 128.555 721.341 122.346C723.177 117.315 721.42 114.62 719.894 111.908C718.467 109.372 717.927 106.354 718.289 103.374Z" fill="rgb(255,255,255)" fill-opacity="0.100000001" fill-rule="nonzero" />
			<path id="XMLID_600_" d="M729.778 88.4244C733.108 84.0683 732.353 77.3593 730.994 75.8184C728.511 73.0003 722.76 75.7419 720.151 78.9879C716.726 83.2493 716.276 88.9882 718.934 91.5938C721.593 94.1995 726.448 92.7804 729.778 88.4244Z" fill="rgb(255,255,255)" fill-opacity="0.100000001" fill-rule="nonzero" />
			<path id="XMLID_601_" d="M726.667 100.777C723.271 103.479 721.442 107.435 722.927 110.213C724.412 112.991 728.494 113.271 732.044 110.838C735.594 108.405 736.782 103.333 735.783 101.402C734.333 98.6001 728.894 99.0054 726.667 100.777Z" fill="rgb(255,255,255)" fill-opacity="0.100000001" fill-rule="nonzero" />
			<path id="XMLID_602_" d="M640.696 67.6127C642.436 66.2687 642.516 62.8185 640.736 60.0167C639.38 57.8824 636.124 55.8039 634.475 57.2879C633.573 58.0993 632.717 62.0328 634.435 64.8839C636.152 67.7351 638.955 68.9568 640.696 67.6127Z" fill="rgb(255,255,255)" fill-opacity="0.100000001" fill-rule="nonzero" />
			<path id="XMLID_603_" d="M635.542 72.4774C634.323 71.2497 631.111 70.5857 630.078 72.1407C629.367 73.2119 629.766 76.3222 631.731 78.0463C633.697 79.7704 636.143 79.9209 637.195 78.3831C638.247 76.8458 637.399 74.349 635.542 72.4774Z" fill="rgb(255,255,255)" fill-opacity="0.100000001" fill-rule="nonzero" />
			<path id="XMLID_604_" d="M655.649 72.9922C654.096 72.6061 652.736 71.5897 651.772 70.1565C650.066 67.6182 647.176 66.7136 644.587 67.7315C641.999 68.7494 640.227 71.4875 640.277 74.6771C640.305 76.4783 639.794 78.2302 638.786 79.6241C637.708 81.1143 636.493 82.5757 637.27 85.7164C638.228 89.5927 642.103 91.5309 645.461 90.2104C646.407 89.8384 647.227 89.2413 647.892 88.4907C648.612 87.6782 649.471 87.0646 650.402 86.6916C651.337 86.3306 652.348 86.2088 653.357 86.3417C654.289 86.4645 655.259 86.3573 656.205 85.9853C659.563 84.6648 661.544 80.424 660.174 76.7094C659.064 73.6995 657.311 73.405 655.649 72.9922Z" fill="rgb(255,255,255)" fill-opacity="0.100000001" fill-rule="nonzero" />
			<path id="XMLID_605_" d="M647.624 64.8712C649.725 64.695 651.245 61.7618 651.02 58.3197C650.795 54.8776 647.961 52.4055 646.809 52.407C644.702 52.4095 643.299 56.3329 643.413 58.9585C643.563 62.4057 645.524 65.0474 647.624 64.8712Z" fill="rgb(255,255,255)" fill-opacity="0.100000001" fill-rule="nonzero" />
			<path id="XMLID_567_" d="M656.295 70.8198C657.963 71.2804 659.794 69.4365 660.382 66.7016C660.971 63.9668 659.572 61.252 658.426 60.9158C656.763 60.428 654.615 63.2142 654.338 65.0339C653.916 67.8081 654.626 70.3597 656.295 70.8198Z" fill="rgb(255,255,255)" fill-opacity="0.100000001" fill-rule="nonzero" />
			<path id="XMLID_566_" d="M566.769 95.7041C568.648 94.1033 568.58 90.2515 566.468 87.2302C564.859 84.9292 561.133 82.8015 559.362 84.5527C558.393 85.5107 557.617 89.9469 559.662 93.0266C561.707 96.1058 564.889 97.3048 566.769 95.7041Z" fill="rgb(255,255,255)" fill-opacity="0.100000001" fill-rule="nonzero" />
			<path id="XMLID_565_" d="M557.238 107.864C559.508 109.671 562.243 109.697 563.347 107.921C564.45 106.144 563.389 103.41 561.234 101.431C559.819 100.133 556.206 99.5801 555.125 101.374C554.381 102.61 554.968 106.056 557.238 107.864Z" fill="rgb(255,255,255)" fill-opacity="0.100000001" fill-rule="nonzero" />
			<path id="XMLID_609_" d="M565.192 109.211C564.058 110.936 562.77 112.636 563.778 116.093C565.024 120.36 569.434 122.296 573.119 120.627C574.157 120.157 575.045 119.443 575.751 118.567C576.516 117.619 577.446 116.884 578.468 116.414C579.495 115.957 580.615 115.762 581.747 115.851C582.792 115.934 583.87 115.757 584.908 115.288C588.593 113.619 590.609 108.773 588.912 104.711C587.537 101.42 585.568 101.194 583.696 100.83C581.946 100.49 580.383 99.4365 579.243 97.8941C577.225 95.163 573.96 94.3234 571.12 95.6096C568.28 96.8958 566.428 100.053 566.629 103.607C566.743 105.614 566.253 107.597 565.192 109.211Z" fill="rgb(255,255,255)" fill-opacity="0.100000001" fill-rule="nonzero" />
			<path id="XMLID_610_" d="M574.369 92.2432C576.704 91.9241 578.266 88.5638 577.857 84.7378C577.45 80.9124 574.176 78.3203 572.891 78.3893C570.543 78.5151 569.157 82.9729 569.403 85.8947C569.727 89.7302 572.035 92.5624 574.369 92.2432Z" fill="rgb(255,255,255)" fill-opacity="0.100000001" fill-rule="nonzero" />
			<path id="XMLID_611_" d="M584.314 98.37C586.197 98.7863 588.154 96.6233 588.686 93.5386C589.217 90.4544 587.533 87.5081 586.241 87.2005C584.364 86.754 582.095 89.9862 581.869 92.032C581.524 95.1499 582.432 97.9537 584.314 98.37Z" fill="rgb(255,255,255)" fill-opacity="0.100000001" fill-rule="nonzero" />
			<path id="XMLID_612_" d="M616.615 205.699C619.695 201.97 621.964 194.162 618.847 191.164C617.141 189.525 610.201 189.16 606.051 193.94C601.902 198.72 600.903 205.227 603.82 208.474C606.736 211.721 612.572 210.594 616.615 205.699Z" fill="rgb(255,255,255)" fill-opacity="0.100000001" fill-rule="nonzero" />
			<path id="XMLID_613_" d="M582.9 193.05C580.74 197.939 581.408 203.272 584.392 204.962C587.376 206.652 591.256 203.881 593.705 199.17C595.312 196.079 595.218 188.899 592.213 187.258C590.143 186.127 585.061 188.161 582.9 193.05Z" fill="rgb(255,255,255)" fill-opacity="0.100000001" fill-rule="nonzero" />
			<path id="XMLID_614_" d="M605.081 216.906C602.393 211.706 597.119 208.913 591.773 210.223C588.753 210.963 585.613 210.52 582.889 208.871C579.976 207.108 577.06 205.038 572.069 207.895C565.909 211.423 564.109 220.513 567.595 227.259C568.577 229.16 569.891 230.704 571.403 231.854C573.042 233.1 574.398 234.722 575.376 236.591C576.336 238.471 576.921 240.605 577.077 242.832C577.222 244.889 577.768 246.943 578.751 248.843C582.237 255.589 590.118 258.263 595.851 253.909C600.496 250.381 600.329 246.489 600.399 242.749C600.464 239.252 601.66 235.936 603.709 233.317C607.336 228.681 607.768 222.106 605.081 216.906Z" fill="rgb(255,255,255)" fill-opacity="0.100000001" fill-rule="nonzero" />
			<path id="XMLID_615_" d="M619.402 211.064C613.659 212.686 609.953 217.912 611.041 222.376C612.129 226.841 617.637 229.015 623.343 227.232C629.048 225.449 632.14 218.403 631.704 215.92C630.906 211.377 623.777 209.828 619.402 211.064Z" fill="rgb(255,255,255)" fill-opacity="0.100000001" fill-rule="nonzero" />
			<path id="XMLID_616_" d="M613.298 236.922C608.471 237.056 604.446 239.549 604.301 243.322C604.155 247.096 607.946 250.35 612.769 250.589C617.592 250.828 621.633 246.787 621.766 244.188C621.96 240.417 616.464 236.834 613.298 236.922Z" fill="rgb(255,255,255)" fill-opacity="0.100000001" fill-rule="nonzero" />
			<path id="XMLID_617_" d="M491.796 204.91C495.639 205.311 499.307 200.543 499.682 194.234C499.967 189.428 497.51 182.189 493.651 182.106C491.541 182.061 486.278 186.485 485.765 192.782C485.253 199.079 487.953 204.509 491.796 204.91Z" fill="rgb(255,255,255)" fill-opacity="0.100000001" fill-rule="nonzero" />
			<path id="XMLID_618_" d="M475.744 215.484C478.814 214.702 480.188 210.055 479.495 204.958C479.04 201.614 475.186 196.43 472.126 197.262C470.017 197.835 467.375 202.757 468.374 207.788C469.373 212.821 472.672 216.266 475.744 215.484Z" fill="rgb(255,255,255)" fill-opacity="0.100000001" fill-rule="nonzero" />
			<path id="XMLID_619_" d="M494.752 251.347C500.855 253.919 508.023 250.547 509.916 243.491C511.451 237.774 509.278 235.042 507.357 232.263C505.56 229.664 504.687 226.431 504.803 223.134C505.01 217.294 501.86 212.198 497.155 210.214C492.45 208.231 487.124 209.756 483.908 214.326C482.092 216.908 479.565 218.707 476.705 219.343C473.647 220.024 470.426 220.482 468.285 225.943C465.643 232.684 469.119 240.543 475.223 243.115C476.942 243.84 478.716 244.081 480.428 243.899C482.282 243.701 484.127 243.97 485.827 244.675C487.52 245.4 489.072 246.563 490.36 248.085C491.551 249.491 493.032 250.622 494.752 251.347Z" fill="rgb(255,255,255)" fill-opacity="0.100000001" fill-rule="nonzero" />
			<path id="XMLID_620_" d="M504.392 210.188C507.54 212.715 512.711 210.581 515.94 205.421C519.169 200.262 517.714 193.024 516.086 191.504C513.108 188.724 507.083 192.411 504.538 196.271C501.197 201.337 501.244 207.661 504.392 210.188Z" fill="rgb(255,255,255)" fill-opacity="0.100000001" fill-rule="nonzero" />
			<path id="XMLID_564_" d="M510.505 230.047C512.386 232.903 516.872 232.718 520.521 229.633C524.172 226.548 524.994 220.864 523.721 218.875C521.875 215.988 515.971 217.085 513.704 219.289C510.248 222.649 508.622 227.191 510.505 230.047Z" fill="rgb(255,255,255)" fill-opacity="0.100000001" fill-rule="nonzero" />
			<path id="XMLID_563_" d="M546.501 330.582C550.145 333.874 556.643 331.818 560.719 325.728C563.823 321.09 565.585 311.935 561.737 308.952C559.634 307.321 551.726 307.832 547.519 313.805C543.311 319.778 542.855 327.289 546.501 330.582Z" fill="rgb(255,255,255)" fill-opacity="0.100000001" fill-rule="nonzero" />
			<path id="XMLID_562_" d="M521.162 315.887C519.222 321.718 520.534 327.676 524.093 329.194C527.652 330.712 531.763 327.053 534.049 321.385C535.55 317.666 534.696 309.537 531.119 308.077C528.654 307.071 523.103 310.056 521.162 315.887Z" fill="rgb(255,255,255)" fill-opacity="0.100000001" fill-rule="nonzero" />
			<path id="XMLID_624_" d="M548.813 339.973C545.225 334.436 538.954 331.973 533.029 334.171C529.682 335.413 526.076 335.331 522.816 333.824C519.329 332.213 515.808 330.255 510.446 334.161C503.829 338.982 502.733 349.528 507.388 356.712C508.7 358.736 510.349 360.312 512.185 361.415C514.172 362.608 515.878 364.267 517.181 366.255C518.465 368.26 519.351 370.601 519.76 373.105C520.138 375.418 520.971 377.673 522.283 379.697C526.938 386.881 536.151 388.861 542.198 383.16C547.097 378.541 546.504 374.15 546.193 369.901C545.903 365.926 546.915 362.007 548.965 358.765C552.595 353.023 552.401 345.51 548.813 339.973Z" fill="rgb(255,255,255)" fill-opacity="0.100000001" fill-rule="nonzero" />
			<path id="XMLID_552_" d="M564.437 331.44C558.094 334.045 554.436 340.465 556.134 345.382C557.832 350.299 564.302 352.029 570.587 349.246C576.87 346.463 579.642 338.063 578.889 335.305C577.512 330.26 569.268 329.456 564.437 331.44Z" fill="rgb(255,255,255)" fill-opacity="0.100000001" fill-rule="nonzero" />
			<path id="XMLID_626_" d="M560.215 361.572C554.757 362.367 550.453 365.73 550.68 370.028C550.908 374.327 555.544 377.51 561.038 377.137C566.531 376.765 570.692 371.644 570.573 368.68C570.4 364.379 563.796 361.05 560.215 361.572Z" fill="rgb(255,255,255)" fill-opacity="0.100000001" fill-rule="nonzero" />
			<path id="XMLID_551_" d="M495.587 412.564C494.427 413.246 492.718 417.416 494.084 421.015C495.45 424.613 498.337 426.664 500.534 425.596C502.73 424.527 503.482 420.703 502.037 417.144C500.936 414.433 497.708 411.316 495.587 412.564Z" fill="rgb(255,255,255)" fill-opacity="0.100000001" fill-rule="nonzero" />
			<path id="XMLID_550_" d="M493.849 429.741C492.728 428.074 489.277 426.544 487.829 428.021C486.831 429.039 486.679 432.602 488.537 435.006C490.395 437.41 493.09 438.18 494.557 436.726C496.024 435.273 495.558 432.283 493.849 429.741Z" fill="rgb(255,255,255)" fill-opacity="0.100000001" fill-rule="nonzero" />
			<path id="XMLID_549_" d="M516.145 435.266C514.488 434.453 513.17 432.987 512.372 431.153C510.958 427.906 507.913 426.187 504.834 426.683C501.756 427.18 499.255 429.793 498.699 433.358C498.386 435.371 497.48 437.196 496.089 438.501C494.603 439.895 492.969 441.224 493.231 444.913C493.554 449.466 497.498 452.578 501.492 451.935C502.617 451.753 503.646 451.29 504.529 450.618C505.487 449.89 506.562 449.418 507.671 449.232C508.781 449.06 509.93 449.173 511.029 449.57C512.043 449.936 513.146 450.055 514.27 449.874C518.264 449.229 521.283 444.994 520.471 440.519C519.813 436.895 517.917 436.136 516.145 435.266Z" fill="rgb(255,255,255)" fill-opacity="0.100000001" fill-rule="nonzero" />
			<path id="XMLID_548_" d="M508.768 424.247C511.141 424.567 513.397 421.674 513.807 417.785C514.218 413.895 511.535 410.444 510.252 410.162C507.905 409.646 505.589 413.67 505.212 416.623C504.717 420.5 506.394 423.926 508.768 424.247Z" fill="rgb(255,255,255)" fill-opacity="0.100000001" fill-rule="nonzero" />
			<path id="XMLID_547_" d="M521.562 422.499C519.803 421.546 516.876 424.121 516.218 426.079C515.215 429.065 515.516 432.081 517.286 433.005C519.057 433.929 521.449 432.326 522.629 429.425C523.81 426.523 522.773 423.156 521.562 422.499Z" fill="rgb(255,255,255)" fill-opacity="0.100000001" fill-rule="nonzero" />
			<path id="XMLID_546_" d="M397.425 466.786C397.978 462.563 394.069 458.253 388.653 457.5C384.528 456.926 378.159 459.249 377.88 463.507C377.727 465.836 381.254 471.889 386.652 472.794C392.049 473.7 396.873 471.01 397.425 466.786Z" fill="rgb(255,255,255)" fill-opacity="0.100000001" fill-rule="nonzero" />
			<path id="XMLID_545_" d="M396.806 480.381C393.901 480.704 389.228 484.68 389.779 488.106C390.16 490.466 394.257 493.649 398.646 492.817C403.035 491.985 406.181 488.526 405.673 485.092C405.165 481.658 401.235 479.89 396.806 480.381Z" fill="rgb(255,255,255)" fill-opacity="0.100000001" fill-rule="nonzero" />
			<path id="XMLID_544_" d="M431.644 448.837C426.802 446.834 424.33 449.087 421.833 451.059C419.497 452.903 416.665 453.694 413.83 453.388C408.811 452.845 404.25 456.05 402.288 461.14C400.326 466.23 401.352 472.196 405.117 475.995C407.243 478.14 408.656 481.029 409.05 484.222C409.472 487.637 409.693 491.221 414.282 493.88C419.947 497.161 426.906 493.745 429.451 487.142C430.168 485.281 430.471 483.334 430.407 481.433C430.336 479.375 430.668 477.35 431.366 475.511C432.083 473.68 433.168 472.029 434.549 470.687C435.824 469.448 436.878 467.873 437.595 466.012C440.14 459.409 437.621 451.309 431.644 448.837Z" fill="rgb(255,255,255)" fill-opacity="0.100000001" fill-rule="nonzero" />
			<path id="XMLID_534_" d="M390.675 452.236C394.859 456.2 400.31 456.489 402.657 453.148C405.003 449.805 403.443 443.979 399.172 440.134C394.901 436.289 388.588 437.506 387.19 439.222C384.635 442.361 387.487 449.216 390.675 452.236Z" fill="rgb(255,255,255)" fill-opacity="0.100000001" fill-rule="nonzero" />
			<path id="XMLID_533_" d="M420.098 447.462C422.66 445.536 422.741 440.571 420.28 436.373C417.819 432.175 412.967 430.96 411.185 432.258C408.598 434.142 409.225 440.724 411.002 443.347C413.711 447.346 417.536 449.388 420.098 447.462Z" fill="rgb(255,255,255)" fill-opacity="0.100000001" fill-rule="nonzero" />
			<path id="XMLID_532_" d="M323.978 481.238C326.641 481.125 328.78 477.491 328.541 473.132C328.358 469.811 326.107 465.101 323.458 465.432C322.009 465.614 318.752 469.174 318.895 473.538C319.039 477.903 321.315 481.35 323.978 481.238Z" fill="rgb(255,255,255)" fill-opacity="0.100000001" fill-rule="nonzero" />
			<path id="XMLID_531_" d="M313.812 490.096C315.855 489.251 316.431 485.93 315.555 482.509C314.981 480.264 311.935 477.102 309.904 477.98C308.505 478.585 307.082 482.222 308.161 485.567C309.241 488.913 311.771 490.94 313.812 490.096Z" fill="rgb(255,255,255)" fill-opacity="0.100000001" fill-rule="nonzero" />
			<path id="XMLID_530_" d="M336.788 498.403C335.354 496.804 334.501 494.678 334.322 492.408C334.005 488.387 331.447 485.214 328.07 484.329C324.691 483.445 321.163 485.025 319.32 488.48C318.278 490.431 316.689 491.918 314.78 492.641C312.739 493.416 310.569 494.054 309.532 498.01C308.252 502.893 311.249 507.925 315.632 509.073C316.867 509.396 318.101 509.382 319.259 509.085C320.513 508.764 321.799 508.762 323.018 509.073C324.234 509.399 325.389 510.04 326.391 510.952C327.316 511.795 328.42 512.42 329.654 512.744C334.036 513.891 338.681 510.859 339.425 505.836C340.025 501.766 338.322 500.113 336.788 498.403Z" fill="rgb(255,255,255)" fill-opacity="0.100000001" fill-rule="nonzero" />
			<path id="XMLID_529_" d="M333.022 483.583C335.377 484.997 338.751 483.014 340.557 479.155C342.363 475.296 340.799 470.486 339.564 469.609C337.306 468.004 333.469 471.137 332.029 474.036C330.138 477.843 330.667 482.169 333.022 483.583Z" fill="rgb(255,255,255)" fill-opacity="0.100000001" fill-rule="nonzero" />
			<path id="XMLID_528_" d="M340.126 488.878C338.022 491.527 337.266 494.801 338.78 496.568C340.293 498.334 343.35 497.755 345.608 495.275C347.865 492.795 347.982 488.819 346.954 487.585C345.463 485.794 341.506 487.14 340.126 488.878Z" fill="rgb(255,255,255)" fill-opacity="0.100000001" fill-rule="nonzero" />
			<path id="XMLID_527_" d="M258.163 564.268C260.375 563.76 261.72 560.39 260.992 556.784C260.437 554.038 257.984 550.452 255.811 551.142C254.621 551.519 252.331 555 252.981 558.625C253.631 562.25 255.951 564.777 258.163 564.268Z" fill="rgb(255,255,255)" fill-opacity="0.100000001" fill-rule="nonzero" />
			<path id="XMLID_526_" d="M250.74 573.253C252.344 572.229 252.422 569.364 251.275 566.641C250.524 564.855 247.594 562.687 246.003 563.736C244.907 564.46 244.16 567.72 245.468 570.348C246.776 572.976 249.136 574.277 250.74 573.253Z" fill="rgb(255,255,255)" fill-opacity="0.100000001" fill-rule="nonzero" />
			<path id="XMLID_525_" d="M270.951 576.62C269.558 575.506 268.589 573.863 268.163 571.993C267.41 568.683 264.888 566.429 261.958 566.215C259.028 566.002 256.271 567.872 255.149 571.045C254.517 572.838 253.369 574.328 251.861 575.229C250.249 576.194 248.513 577.065 248.127 580.532C247.649 584.812 250.765 588.551 254.567 588.828C255.637 588.906 256.667 588.702 257.598 588.274C258.608 587.81 259.682 587.609 260.738 587.679C261.795 587.763 262.837 588.118 263.785 588.725C264.661 589.285 265.659 589.636 266.73 589.714C270.531 589.991 274.045 586.735 274.055 582.421C274.064 578.926 272.441 577.811 270.951 576.62Z" fill="rgb(255,255,255)" fill-opacity="0.100000001" fill-rule="nonzero" />
			<path id="XMLID_524_" d="M266.011 564.821C268.151 565.636 270.73 563.455 271.771 559.949C272.812 556.443 270.921 552.666 269.783 552.126C267.701 551.136 264.875 554.351 264.023 556.998C262.906 560.473 263.873 564.006 266.011 564.821Z" fill="rgb(255,255,255)" fill-opacity="0.100000001" fill-rule="nonzero" />
			<path id="XMLID_523_" d="M272.586 568.143C271.15 570.683 270.914 573.537 272.394 574.778C273.872 576.019 276.357 575.06 277.943 572.635C279.529 570.211 279.144 566.871 278.135 566C276.671 564.735 273.528 566.475 272.586 568.143Z" fill="rgb(255,255,255)" fill-opacity="0.100000001" fill-rule="nonzero" />
			<path id="XMLID_522_" d="M212.884 473.535C215.618 470.325 217.692 463.54 215.004 460.875C213.534 459.417 207.477 458.994 203.797 463.106C200.116 467.219 199.166 472.887 201.676 475.767C204.186 478.646 209.295 477.75 212.884 473.535Z" fill="rgb(255,255,255)" fill-opacity="0.100000001" fill-rule="nonzero" />
			<path id="XMLID_521_" d="M184.722 472.406C187.307 473.927 190.729 471.565 192.923 467.488C194.363 464.813 194.365 458.54 191.761 457.061C189.966 456.042 185.503 457.742 183.558 461.98C181.614 466.218 182.135 470.886 184.722 472.406Z" fill="rgb(255,255,255)" fill-opacity="0.100000001" fill-rule="nonzero" />
			<path id="XMLID_520_" d="M202.672 483.149C200.386 478.567 195.812 476.048 191.127 477.112C188.481 477.712 185.744 477.279 183.384 475.798C180.86 474.213 178.338 472.362 173.945 474.783C168.524 477.771 166.845 485.683 169.811 491.627C170.646 493.302 171.775 494.671 173.083 495.698C174.499 496.811 175.664 498.249 176.496 499.895C177.313 501.552 177.799 503.425 177.91 505.372C178.012 507.171 178.465 508.973 179.301 510.647C182.267 516.592 189.118 519.046 194.176 515.329C198.274 512.318 198.175 508.916 198.279 505.651C198.376 502.598 199.461 499.719 201.28 497.463C204.504 493.467 204.959 487.732 202.672 483.149Z" fill="rgb(255,255,255)" fill-opacity="0.100000001" fill-rule="nonzero" />
			<path id="XMLID_519_" d="M215.255 478.263C210.219 479.593 206.921 484.102 207.819 488.018C208.717 491.933 213.502 493.916 218.506 492.444C223.511 490.972 226.293 484.865 225.941 482.689C225.298 478.709 219.089 477.25 215.255 478.263Z" fill="rgb(255,255,255)" fill-opacity="0.100000001" fill-rule="nonzero" />
			<path id="XMLID_518_" d="M209.611 500.755C205.395 500.799 201.85 502.915 201.678 506.209C201.507 509.503 204.78 512.401 208.99 512.683C213.199 512.964 216.776 509.496 216.923 507.228C217.136 503.937 212.378 500.725 209.611 500.755Z" fill="rgb(255,255,255)" fill-opacity="0.100000001" fill-rule="nonzero" />
			<path id="XMLID_517_" d="M135.044 482.495C137.11 484.119 140.542 482.749 142.543 479.306C144.067 476.684 144.725 471.686 142.56 470.236C141.376 469.444 137.136 470.04 135.062 473.425C132.986 476.81 132.978 480.871 135.044 482.495Z" fill="rgb(255,255,255)" fill-opacity="0.100000001" fill-rule="nonzero" />
			<path id="XMLID_516_" d="M122.934 482.656C124.897 483.329 126.994 481.193 128.046 478.05C128.736 475.988 128.019 471.648 126.048 471.007C124.689 470.566 121.796 472.397 120.937 475.614C120.076 478.83 120.971 481.984 122.934 482.656Z" fill="rgb(255,255,255)" fill-opacity="0.100000001" fill-rule="nonzero" />
			<path id="XMLID_515_" d="M127.905 484.974C126.144 485.778 124.201 485.879 122.398 485.201C120.471 484.475 118.514 483.564 115.752 485.884C112.343 488.747 112.087 494.467 114.82 498.145C115.589 499.181 116.527 499.962 117.549 500.481C118.657 501.043 119.627 501.866 120.392 502.883C121.146 503.91 121.696 505.134 121.996 506.465C122.273 507.694 122.792 508.874 123.562 509.91C126.295 513.588 131.315 514.28 134.389 510.967C136.88 508.282 136.422 505.943 136.12 503.668C135.838 501.541 136.259 499.391 137.26 497.562C139.032 494.325 138.69 490.29 136.584 487.455C134.477 484.621 131.025 483.55 127.905 484.974Z" fill="rgb(255,255,255)" fill-opacity="0.100000001" fill-rule="nonzero" />
			<path id="XMLID_514_" d="M144.722 482.23C141.391 483.889 139.625 487.492 140.695 490.07C141.764 492.647 145.301 493.315 148.595 491.563C151.889 489.811 153.115 485.177 152.623 483.723C151.721 481.065 147.259 480.966 144.722 482.23Z" fill="rgb(255,255,255)" fill-opacity="0.100000001" fill-rule="nonzero" />
			<path id="XMLID_513_" d="M143.4 498.618C140.487 499.267 138.277 501.252 138.536 503.555C138.794 505.859 141.39 507.384 144.335 506.961C147.279 506.538 149.356 503.614 149.199 502.024C148.97 499.715 145.31 498.192 143.4 498.618Z" fill="rgb(255,255,255)" fill-opacity="0.100000001" fill-rule="nonzero" />
			<path id="XMLID_512_" d="M30.1938 519.446C33.0576 521.305 36.299 520.995 37.433 518.755C38.5671 516.514 37.205 513.11 34.3015 511.332C32.0903 509.978 28.0501 509.695 27.0631 512.024C26.5234 513.297 27.3308 517.588 30.1938 519.446Z" fill="rgb(255,255,255)" fill-opacity="0.100000001" fill-rule="nonzero" />
			<path id="XMLID_511_" d="M34.4254 526.257C32.7254 525.713 29.3183 526.785 28.9613 528.852C28.715 530.277 30.4026 533.094 33.037 533.721C35.6715 534.35 38.1175 533.188 38.5012 531.126C38.884 529.066 37.0159 527.087 34.4254 526.257Z" fill="rgb(255,255,255)" fill-opacity="0.100000001" fill-rule="nonzero" />
			<path id="XMLID_510_" d="M54.2417 515.996C52.567 516.451 50.8176 516.189 49.2808 515.308C46.5587 513.748 43.3654 514.414 41.2684 516.79C39.1714 519.167 38.5868 522.784 39.9663 525.864C40.7451 527.604 40.9785 529.584 40.5784 531.482C40.1499 533.511 39.5768 535.584 41.6432 538.229C44.1945 541.493 48.7789 541.308 51.5 538.224C52.266 537.355 52.8164 536.335 53.1502 535.248C53.5121 534.071 54.0932 533.013 54.8454 532.152C55.6056 531.299 56.5392 530.641 57.5781 530.23C58.537 529.851 59.4382 529.227 60.205 528.358C62.9258 525.275 63.0849 520.083 60.2006 517.196C57.864 514.858 56.0332 515.51 54.2417 515.996Z" fill="rgb(255,255,255)" fill-opacity="0.100000001" fill-rule="nonzero" />
			<path id="XMLID_488_" d="M37.0351 500.671C34.9839 501.801 35.2537 506.374 36.4611 508.871C38.046 512.15 41.0593 513.674 43.0318 512.379C45.0052 511.083 45.2622 507.411 43.6057 504.179C41.9502 500.946 38.1567 500.054 37.0351 500.671Z" fill="rgb(255,255,255)" fill-opacity="0.100000001" fill-rule="nonzero" />
			<path id="XMLID_487_" d="M51.9096 502.745C50.0856 503.159 49.1556 507.023 49.645 508.944C50.3915 511.873 52.1484 513.979 53.9662 513.535C55.784 513.09 56.7981 510.314 56.2299 507.335C55.6627 504.355 53.166 502.459 51.9096 502.745Z" fill="rgb(255,255,255)" fill-opacity="0.100000001" fill-rule="nonzero" />
			<path id="XMLID_662_" d="M21.9302 350.691C25.541 349.353 27.2112 343.421 25.372 337.554C23.9703 333.086 19.2526 327.632 15.737 329.264C13.8152 330.157 10.5854 336.484 12.2961 342.401C14.0054 348.318 18.3195 352.029 21.9302 350.691Z" fill="rgb(255,255,255)" fill-opacity="0.100000001" fill-rule="nonzero" />
			<path id="XMLID_663_" d="M11.0705 367.351C13.5751 365.286 13.2133 360.478 10.8273 356.179C9.26152 353.358 3.99122 350.38 1.51322 352.486C-0.194795 353.937 -0.883425 359.553 1.75551 363.658C4.39533 367.764 8.56533 369.417 11.0705 367.351Z" fill="rgb(255,255,255)" fill-opacity="0.100000001" fill-rule="nonzero" />
			<path id="XMLID_486_" d="M35.5437 390.336C37.1041 391.079 38.833 391.445 40.637 391.34C47.0401 390.963 52.3522 384.744 51.6284 377.531C51.042 371.686 48.1355 370.179 45.441 368.518C42.9203 366.964 41.0158 364.43 39.9831 361.399C38.1537 356.031 33.5489 352.82 28.6129 353.11C23.6774 353.4 19.3909 357.134 18.0621 362.687C17.3121 365.824 15.6485 368.568 13.2843 370.408C10.7557 372.376 8.00337 374.216 7.95358 380.098C7.89357 387.358 13.7462 392.921 20.1493 392.544C21.9538 392.438 23.6396 391.871 25.124 390.949C26.7311 389.951 28.4915 389.377 30.2702 389.261C32.0498 389.167 33.8543 389.532 35.5437 390.336Z" fill="rgb(255,255,255)" fill-opacity="0.100000001" fill-rule="nonzero" />
			<path id="XMLID_485_" d="M35.1322 349.883C38.8492 350.773 42.7845 346.556 43.9222 340.465C45.0594 334.374 41.2472 328.478 39.2511 327.825C35.6013 326.631 31.4295 332.629 30.4612 337.243C29.1902 343.3 31.4152 348.993 35.1322 349.883Z" fill="rgb(255,255,255)" fill-opacity="0.100000001" fill-rule="nonzero" />
			<path id="XMLID_482_" d="M47.5233 365.121C50.2103 366.869 54.1984 364.716 56.4319 360.313C58.6654 355.911 57.4464 350.411 55.6108 349.177C52.9461 347.386 47.9897 350.99 46.7013 353.984C44.7386 358.55 44.8364 363.374 47.5233 365.121Z" fill="rgb(255,255,255)" fill-opacity="0.100000001" fill-rule="nonzero" />
		</g>
	</g>
</svg>
